<?xml version="1.0" encoding="iso-8859-1"?>
<!-- Uploaded to: SVG Repo, www.svgrepo.com, Generator: SVG Repo Mixer Tools -->
<svg fill="#000000" height="800px" width="800px" version="1.1" id="Layer_1" xmlns="http://www.w3.org/2000/svg" xmlns:xlink="http://www.w3.org/1999/xlink" 
	 viewBox="0 0 512 512" xml:space="preserve">
<g>
	<g>
		<g>
			<path d="M490.667,0H213.333H128H21.333C9.536,0,0,9.557,0,21.333v128v85.333v256c0,0.32,0.171,0.597,0.192,0.917
				c0.064,1.536,0.491,2.965,0.896,4.459c0.32,1.237,0.512,2.475,1.045,3.605c0.533,1.152,1.387,2.112,2.133,3.179
				c0.896,1.237,1.685,2.453,2.795,3.477c0.256,0.235,0.341,0.533,0.597,0.747c1.024,0.853,2.219,1.259,3.307,1.899
				c0.896,0.491,1.664,1.109,2.645,1.493c2.496,0.981,5.077,1.557,7.701,1.557h0.021h149.333c11.797,0,21.333-9.557,21.333-21.333
				s-9.536-21.333-21.333-21.333H66.88l77.525-93.013c3.179-3.84,4.928-8.661,4.928-13.653v-128
				c0-11.776-9.536-21.333-21.333-21.333H42.667v-42.667H128c11.797,0,21.333-9.557,21.333-21.333V42.667H192v170.667
				c0,8.341,4.864,15.893,12.416,19.392c7.573,3.477,16.469,2.219,22.784-3.2L445.227,42.667h24.107v128
				c0,11.776,9.536,21.333,21.333,21.333S512,182.443,512,170.667V21.333C512,9.557,502.464,0,490.667,0z"/>
			<path d="M362.667,213.333c-82.325,0-149.333,66.987-149.333,149.333S280.341,512,362.667,512S512,445.013,512,362.667
				S444.992,213.333,362.667,213.333z M420.416,399.083l-42.645,42.645c-1.963,1.984-4.331,3.541-6.955,4.629
				c-2.603,1.067-5.376,1.643-8.149,1.643s-5.547-0.576-8.149-1.643c-2.624-1.088-4.992-2.645-6.955-4.629l-42.645-42.645
				c-8.341-8.341-8.341-21.824,0-30.165c8.341-8.341,21.824-8.341,30.165,0l6.251,6.251v-76.501
				c0-11.776,9.536-21.333,21.333-21.333S384,286.891,384,298.667v76.501l6.251-6.251c8.341-8.341,21.824-8.341,30.165,0
				S428.757,390.741,420.416,399.083z"/>
		</g>
	</g>
</g>
</svg>